<svg xmlns="http://www.w3.org/2000/svg" width="46.03" height="27" viewBox="0 0 46.03 27">
  <defs>
    <style>
      .cls-1 {
        fill-rule: evenodd;
      }
    </style>
  </defs>
  <path id="bnext.svg" class="cls-1" d="M1259.44,4332.19l-11.06,11.21a1.944,1.944,0,0,1-2.78,0,2.022,2.022,0,0,1,0-2.83l7.64-7.76H1216a2,2,0,0,1-2-2v-0.05a2,2,0,0,1,2-2h37.17l-8.19-8.31a2.053,2.053,0,0,1,0-2.87,1.986,1.986,0,0,1,2.83,0l11.21,11.37c0.04,0.05.06,0.1,0.1,0.15a1.92,1.92,0,0,1,.32.26A2.022,2.022,0,0,1,1259.44,4332.19Z" transform="translate(-1214 -4317)"/>
</svg>
