<svg xmlns="http://www.w3.org/2000/svg" width="17" height="25" viewBox="0 0 17 25">
  <defs>
    <style>
      .cls-1 {
        fill-rule: evenodd;
      }
    </style>
  </defs>
  <path id="floc.svg" class="cls-1" d="M973.5,7961a8.656,8.656,0,0,0-8.5,8.79,8.992,8.992,0,0,0,1.269,4.62l6.747,11.24a0.7,0.7,0,0,0,.6.35h0.006a0.7,0.7,0,0,0,.6-0.36l6.575-11.35a9,9,0,0,0,1.2-4.5A8.656,8.656,0,0,0,973.5,7961Zm6.085,12.54-5.978,10.32-6.134-10.22a7.53,7.53,0,0,1-1.066-3.85,7.095,7.095,0,1,1,14.181,0A7.515,7.515,0,0,1,979.585,7973.54Zm-6.085-8.15a4.4,4.4,0,1,0,4.25,4.4A4.335,4.335,0,0,0,973.5,7965.39Zm0,7.34a2.942,2.942,0,1,1,2.838-2.94A2.895,2.895,0,0,1,973.5,7972.73Z" transform="translate(-965 -7961)"/>
</svg>
