<svg xmlns="http://www.w3.org/2000/svg" width="21" height="23" viewBox="0 0 21 23">
  <defs>
    <style>
      .cls-1 {
        fill-rule: evenodd;
      }
    </style>
  </defs>
  <path id="fmail.svg" class="cls-1" d="M973.5,8038.7a4.811,4.811,0,0,0-4.9,4.71,4.673,4.673,0,0,0,2.263,3.98,5.178,5.178,0,0,0,4.873.25,0.657,0.657,0,0,0,.343-0.89,0.7,0.7,0,0,0-.928-0.33,3.763,3.763,0,0,1-3.533-.17,3.331,3.331,0,0,1-1.618-2.84,3.5,3.5,0,0,1,7,0,0.7,0.7,0,0,1-1.4.01v-0.01a2.1,2.1,0,1,0-2.1,2.02,2.177,2.177,0,0,1,2.8,0,2.059,2.059,0,0,0,2.1-2.02A4.811,4.811,0,0,0,973.5,8038.7Zm0.69,4.82a0.7,0.7,0,0,1-1.39-.11,0.7,0.7,0,0,1,1.4-.08A0.722,0.722,0,0,0,974.19,8043.52Zm9.81,1.33a0.67,0.67,0,0,0-.205-0.48l-2.595-2.5v-5.2a0.685,0.685,0,0,0-.7-0.67h-14a0.685,0.685,0,0,0-.7.67v5.2l-2.595,2.5a0.061,0.061,0,0,1-.007.01,0.662,0.662,0,0,0-.2.47h0v12.13a2.067,2.067,0,0,0,2.1,2.02h16.8a2.065,2.065,0,0,0,2.1-2.02v-12.13h0Zm-2.8-1.07,1.11,1.07-1.11,1.07v-2.14Zm-14-1.63h0v-4.8h12.6v4.8h0v5.12l-3.79,3.64h-5.02l-3.79-3.64v-5.12Zm-1.4,1.63v2.14l-1.11-1.07Zm-1.4,12.92v-10.22l5.31,5.11Zm0.99,0.95,5.6-5.39h5.02l5.6,5.39H965.39Zm17.21-.95-5.31-5.11,5.31-5.11v10.22Z" transform="translate(-963 -8036)"/>
</svg>
