<svg xmlns="http://www.w3.org/2000/svg" width="24.031" height="24.03" viewBox="0 0 24.031 24.03">
  <defs>
    <style>
      .cls-1 {
        fill-rule: evenodd;
      }
    </style>
  </defs>
  <path id="ftel.svg" class="cls-1" d="M984.382,7921.7l-2.983-2.98a2.1,2.1,0,0,0-2.984,0l-1.356,1.35a1.587,1.587,0,0,1-2.26,0l-5.878-5.88a1.6,1.6,0,0,1,0-2.26c0.218-.22.845-0.85,1.356-1.36a2.1,2.1,0,0,0,0-2.98l-2.983-2.97a2.1,2.1,0,0,0-2.981-.01c-0.614.61-.812,0.81-1.087,1.08a7.616,7.616,0,0,0,0,10.76l9.314,9.32a7.608,7.608,0,0,0,10.758,0l1.085-1.09A2.107,2.107,0,0,0,984.382,7921.7ZM965.3,7905.61a0.714,0.714,0,0,1,1,0l2.982,2.98a0.7,0.7,0,0,1,0,.99l-0.5.5-3.975-3.98Zm8.229,19.16-9.314-9.31a6.19,6.19,0,0,1-.388-8.35l3.964,3.97a2.991,2.991,0,0,0,.131,4.1l5.878,5.89h0a3,3,0,0,0,4.109.13l3.964,3.96A6.161,6.161,0,0,1,973.533,7924.77Zm9.855-1.08-0.5.5-3.978-3.98,0.5-.5a0.711,0.711,0,0,1,.994,0l2.984,2.99A0.7,0.7,0,0,1,983.388,7923.69Z" transform="translate(-961 -7904)"/>
</svg>
