<svg xmlns="http://www.w3.org/2000/svg" width="41.313" height="41.09" viewBox="0 0 41.313 41.09">
  <defs>
    <style>
      .cls-1 {
        fill-rule: evenodd;
      }
    </style>
  </defs>
  <path id="ins.svg" class="cls-1" d="M794.779,8309.08a20.54,20.54,0,1,1,20.651-20.54A20.6,20.6,0,0,1,794.779,8309.08Zm12.423-26.61a6.259,6.259,0,0,0-6.267-6.23h-12.31a6.261,6.261,0,0,0-6.269,6.23v12.25a6.254,6.254,0,0,0,6.269,6.23h12.31a6.252,6.252,0,0,0,6.267-6.23v-12.25Zm-6.267,15.79h-12.31a3.557,3.557,0,0,1-3.564-3.54v-12.25a3.557,3.557,0,0,1,3.564-3.54h12.31a3.558,3.558,0,0,1,3.564,3.54v12.25A3.558,3.558,0,0,1,800.935,8298.26Zm-6.156-16.03a6.365,6.365,0,1,0,6.4,6.37A6.394,6.394,0,0,0,794.779,8282.23Zm6.606-1.7a1.51,1.51,0,1,0,1.514,1.51A1.516,1.516,0,0,0,801.385,8280.53Zm-6.606,11.74a3.675,3.675,0,1,1,3.7-3.67A3.689,3.689,0,0,1,794.779,8292.27Z" transform="translate(-774.125 -8268)"/>
</svg>
