<svg xmlns="http://www.w3.org/2000/svg" width="225" height="73" viewBox="0 0 225 73">
  <defs>
    <style>
      .cls-1 {
        fill: #ffe400;
        fill-rule: evenodd;
      }
    </style>
  </defs>
  <path id="logo.svg" class="cls-1" d="M242.173,113.1a3.444,3.444,0,0,1-3.182-4.579c0-.007,8.56-27.254,8.56-27.254h7.023L265,113.1H242.173Zm8.89-24.054-5.323,17.875h10.919Zm-28.936,15.227v2.648h14.419l-1.864,6.179H220.811a4.6,4.6,0,0,1-4.767-4.744h0V86.014h0a4.6,4.6,0,0,1,4.767-4.745h13.871l1.864,6.179H222.127v16.827Zm-8.5,24.473,2.947,4.114h-2.112l-1.908-2.762-1.875,2.762h-2.1l2.925-4.046-2.778-3.91H210.8l1.818,2.58,1.785-2.58h1.976ZM202.61,81.27H208.7V113.1H202.61V81.27Zm3.993,45.115h-4.156v1.728h3.67v1.431h-3.67v1.842h4.3v1.477h-6.122v-7.956H206.6v1.478Zm-14.151-1.478h1.829v6.456h3.964v1.5h-5.793v-7.956Zm-3.768-37.458V113.1H182.6V87.449h-7.292l-1.864-6.179H197.4l-1.919,6.179h-6.8Zm-5.273-19.356h-1.83V65.251l-3.06-5.114h1.942l2.112,3.534,2.112-3.534h1.8l-3.072,5.137v2.819Zm-8.753-4.774-2.326,3.932h-0.825l-2.315-3.83v4.671h-1.717V60.137h1.514l2.959,4.944,2.913-4.944h1.5l0.022,7.956h-1.717Zm-6.314,24.143H157.489V87.448h-9.538s-0.7-5.577,2.851-6.179h14.691C169.045,81.872,168.344,87.462,168.344,87.462Zm-9.8-27.325h5.974v1.477H160.36v1.728h3.671v1.432H160.36v1.841h4.3v1.478h-6.121V60.137ZM153.725,67.6a5.016,5.016,0,0,1-2.275.5h-3.592V60.137h3.592a5.015,5.015,0,0,1,2.275.494,3.686,3.686,0,0,1,1.536,1.392,4.264,4.264,0,0,1,0,4.182A3.678,3.678,0,0,1,153.725,67.6Zm-0.474-5.285a2.648,2.648,0,0,0-1.892-.665h-1.671v4.933h1.671a2.648,2.648,0,0,0,1.892-.665A2.651,2.651,0,0,0,153.251,62.313Zm-10.193,4.075h-3.67l-0.7,1.705h-1.875l3.523-7.956h1.807l3.536,7.956h-1.92Zm-1.829-4.444-1.254,3.046h2.507Zm-10.278,4.393a2.629,2.629,0,0,0,1.31.323,2.508,2.508,0,0,0,1.988-.943l1.175,1.091a3.677,3.677,0,0,1-1.4,1.057,4.631,4.631,0,0,1-1.863.363,4.523,4.523,0,0,1-2.186-.528,3.935,3.935,0,0,1-1.536-1.466,4.3,4.3,0,0,1,0-4.239,3.933,3.933,0,0,1,1.536-1.466,4.874,4.874,0,0,1,4.055-.164,3.729,3.729,0,0,1,1.4,1.045L134.249,62.5a2.521,2.521,0,0,0-1.988-.932,2.628,2.628,0,0,0-1.31.324,2.3,2.3,0,0,0-.9.9,2.868,2.868,0,0,0,0,2.637A2.3,2.3,0,0,0,130.951,66.337Zm-7.262.051h-3.67l-0.7,1.705h-1.875l3.524-7.956h1.807l3.535,7.956h-1.92Zm-1.829-4.444-1.254,3.046h2.507ZM117.467,81.27V113.1h-6.085V99.752h-9.266V113.1H96.031V81.27h6.085V94.125h9.266V81.27h6.085ZM97.8,132.863h-1.83v-7.956H97.8v7.956Zm-8.572-4.375h3.659v1.477H89.227v2.9H87.4v-7.956h5.974v1.478H89.227v2.1ZM82.05,87.449V113.1H75.965V87.449H68.673L66.809,81.27H90.768l-1.919,6.179h-6.8ZM62.807,113.1H40L50.417,81.27h7.018s8.552,27.247,8.553,27.254C66.938,112.89,62.807,113.1,62.807,113.1ZM53.925,89.049l-5.592,17.875h10.91Zm53.1,37.358H104.5v6.456h-1.83v-6.456h-2.529v-1.5h6.889v1.5Zm7.781,3.331v-4.831h1.807v7.956h-1.5l-3.941-4.83v4.83h-1.807v-7.956h1.513Zm11.012-3.353h-4.156v1.728h3.67v1.431h-3.67v1.842h4.3v1.477h-6.122v-7.956h5.975v1.478Zm-0.951-18.026V81.27h6.086v25.654H141.48l1.864,6.179H129.638a4.6,4.6,0,0,1-4.767-4.744h0Zm5.118,22.935a4.475,4.475,0,0,0,1.4.228,2.221,2.221,0,0,0,1.152-.233,0.7,0.7,0,0,0,.372-0.619,0.593,0.593,0,0,0-.22-0.472,1.67,1.67,0,0,0-.565-0.3c-0.229-.076-0.54-0.159-0.931-0.25a12.789,12.789,0,0,1-1.48-.432,2.406,2.406,0,0,1-.988-0.693,1.881,1.881,0,0,1-.412-1.273,2.228,2.228,0,0,1,.372-1.256,2.514,2.514,0,0,1,1.124-.892,4.558,4.558,0,0,1,1.835-.33,6.054,6.054,0,0,1,1.48.182,4.336,4.336,0,0,1,1.265.523l-0.565,1.4a4.393,4.393,0,0,0-2.191-.624,2.042,2.042,0,0,0-1.135.25,0.762,0.762,0,0,0-.367.659,0.644,0.644,0,0,0,.424.608,6.59,6.59,0,0,0,1.293.392,12.825,12.825,0,0,1,1.479.432,2.465,2.465,0,0,1,.988.681,1.839,1.839,0,0,1,.413,1.263,2.184,2.184,0,0,1-.379,1.244,2.542,2.542,0,0,1-1.135.892,4.6,4.6,0,0,1-1.841.33,6.44,6.44,0,0,1-1.812-.256,4.212,4.212,0,0,1-1.406-.665l0.621-1.386A4.187,4.187,0,0,0,129.986,131.294Zm8.561,0a4.469,4.469,0,0,0,1.4.228,2.217,2.217,0,0,0,1.152-.233,0.7,0.7,0,0,0,.373-0.619,0.6,0.6,0,0,0-.22-0.472,1.68,1.68,0,0,0-.565-0.3c-0.23-.076-0.54-0.159-0.932-0.25a12.825,12.825,0,0,1-1.479-.432,2.4,2.4,0,0,1-.988-0.693,1.882,1.882,0,0,1-.413-1.273,2.229,2.229,0,0,1,.373-1.256,2.508,2.508,0,0,1,1.124-.892,4.551,4.551,0,0,1,1.835-.33,6.045,6.045,0,0,1,1.479.182,4.325,4.325,0,0,1,1.265.523l-0.564,1.4a4.4,4.4,0,0,0-2.191-.624,2.04,2.04,0,0,0-1.135.25,0.762,0.762,0,0,0-.367.659,0.645,0.645,0,0,0,.423.608,6.59,6.59,0,0,0,1.293.392,12.789,12.789,0,0,1,1.48.432,2.465,2.465,0,0,1,.988.681,1.838,1.838,0,0,1,.412,1.263,2.183,2.183,0,0,1-.378,1.244,2.553,2.553,0,0,1-1.135.892,4.6,4.6,0,0,1-1.841.33,6.452,6.452,0,0,1-1.813-.256,4.231,4.231,0,0,1-1.406-.665l0.621-1.386A4.193,4.193,0,0,0,138.547,131.294Zm12.692-37.17h13.816v5.627H151.239V94.125Zm6.249,12.814v-0.014h10.855s0.7,5.579-2.851,6.179H150.8c-3.55-.6-2.85-6.165-2.85-6.165h9.537Zm-5.44,18.362a4.546,4.546,0,0,1,2.2-.529,4.61,4.61,0,0,1,1.858.363,3.744,3.744,0,0,1,1.395,1.046l-1.175,1.091a2.52,2.52,0,0,0-1.988-.931,2.626,2.626,0,0,0-1.31.323,2.3,2.3,0,0,0-.9.9,2.86,2.86,0,0,0,0,2.637,2.3,2.3,0,0,0,.9.9,2.626,2.626,0,0,0,1.31.324,2.507,2.507,0,0,0,1.988-.943l1.175,1.091a3.678,3.678,0,0,1-1.4,1.057,4.628,4.628,0,0,1-1.863.364,4.523,4.523,0,0,1-2.186-.529,3.932,3.932,0,0,1-1.536-1.466,4.3,4.3,0,0,1,0-4.239A3.932,3.932,0,0,1,152.048,125.3Zm9.476,0.005a4.865,4.865,0,0,1,4.432,0,4.067,4.067,0,0,1,0,7.16,4.857,4.857,0,0,1-4.432,0,3.951,3.951,0,0,1-1.548-1.471,4.256,4.256,0,0,1,0-4.217A3.953,3.953,0,0,1,161.524,125.305Zm0.067,4.9a2.319,2.319,0,0,0,.887.9,2.631,2.631,0,0,0,2.53,0,2.317,2.317,0,0,0,.886-0.9,2.86,2.86,0,0,0,0-2.637,2.32,2.32,0,0,0-.886-0.9,2.639,2.639,0,0,0-2.53,0,2.322,2.322,0,0,0-.887.9A2.868,2.868,0,0,0,161.591,130.2Zm13.683-.352,2.914-4.945h1.5l0.022,7.956H178l-0.012-4.773-2.326,3.932h-0.825l-2.315-3.83v4.671H170.8v-7.956h1.513Zm12.914-4.592a2.716,2.716,0,0,1,1.192,1,3.015,3.015,0,0,1,0,3.063,2.665,2.665,0,0,1-1.192,1,4.414,4.414,0,0,1-1.824.347h-1.592v2.193h-1.83v-7.956h3.422A4.364,4.364,0,0,1,188.188,125.26Zm-3.416,1.147v2.763h1.491a1.91,1.91,0,0,0,1.253-.359,1.249,1.249,0,0,0,.429-1.017,1.263,1.263,0,0,0-.429-1.028,1.91,1.91,0,0,0-1.253-.359h-1.491Z" transform="translate(-40 -60)"/>
</svg>
