<svg xmlns="http://www.w3.org/2000/svg" width="28.031" height="28.031" viewBox="0 0 28.031 28.031">
  <defs>
    <style>
      .cls-1 {
        fill: #ffe400;
        fill-rule: evenodd;
      }
    </style>
  </defs>
  <path id="tel.svg" class="cls-1" d="M581.28,103.623l-3.481-3.481a2.465,2.465,0,0,0-3.481,0l-1.582,1.582a1.867,1.867,0,0,1-2.637,0l-6.858-6.863a1.863,1.863,0,0,1,0-2.637c0.255-.255.987-0.986,1.582-1.582a2.459,2.459,0,0,0,0-3.481l-3.48-3.469a2.463,2.463,0,0,0-3.478,0L556.6,84.946a8.885,8.885,0,0,0,0,12.552l10.867,10.871a8.87,8.87,0,0,0,12.552,0l1.266-1.266A2.464,2.464,0,0,0,581.28,103.623ZM559.022,84.852a0.821,0.821,0,0,1,1.161,0l3.48,3.469a0.821,0.821,0,0,1,0,1.16l-0.58.58-4.638-4.638Zm9.6,22.357L557.756,96.338A7.212,7.212,0,0,1,557.3,86.6l4.625,4.624a3.5,3.5,0,0,0,.152,4.794l6.858,6.863h0a3.5,3.5,0,0,0,4.794.153l4.625,4.624A7.2,7.2,0,0,1,568.622,107.209Zm11.5-1.266-0.58.58-4.641-4.641,0.58-.58a0.821,0.821,0,0,1,1.16,0l3.481,3.481A0.821,0.821,0,0,1,580.119,105.943Z" transform="translate(-554 -82.969)"/>
</svg>
