<svg xmlns="http://www.w3.org/2000/svg" width="41.312" height="41.09" viewBox="0 0 41.312 41.09">
  <defs>
    <style>
      .cls-1 {
        fill-rule: evenodd;
      }
    </style>
  </defs>
  <path id="twit.svg" class="cls-1" d="M844.345,8310A20.545,20.545,0,1,1,865,8289.45,20.6,20.6,0,0,1,844.345,8310Zm11.985-28.27a9.981,9.981,0,0,1-3.135,1.19,4.944,4.944,0,0,0-8.539,3.36,4.892,4.892,0,0,0,.127,1.12,14.023,14.023,0,0,1-10.173-5.13,4.848,4.848,0,0,0-.669,2.47,4.913,4.913,0,0,0,2.195,4.09,4.977,4.977,0,0,1-2.236-.62v0.06a4.924,4.924,0,0,0,3.96,4.82,5.058,5.058,0,0,1-1.3.17,4.751,4.751,0,0,1-.929-0.09,4.941,4.941,0,0,0,4.612,3.41,9.919,9.919,0,0,1-6.131,2.1,9.131,9.131,0,0,1-1.177-.07,14.047,14.047,0,0,0,21.61-11.76c0-.21,0-0.42-0.014-0.64a9.846,9.846,0,0,0,2.462-2.54,9.974,9.974,0,0,1-2.834.78A4.941,4.941,0,0,0,856.33,8281.73Z" transform="translate(-823.688 -8268.91)"/>
</svg>
