<svg xmlns="http://www.w3.org/2000/svg" width="41.313" height="41.09" viewBox="0 0 41.313 41.09">
  <defs>
    <style>
      .cls-1 {
        fill-rule: evenodd;
      }
    </style>
  </defs>
  <path id="wk.svg" class="cls-1" d="M716.3,8289.45a20.651,20.651,0,1,1-20.651-20.54,20.6,20.6,0,0,1,20.651,20.54h0Zm0,0-21.431,9.01h1.621a1.347,1.347,0,0,0,.739-0.32,1.187,1.187,0,0,0,.223-0.71s-0.032-2.16.978-2.48,2.272,2.09,3.627,3.02a2.548,2.548,0,0,0,1.8.54l3.62-.05s1.894-.11,1-1.6a12.1,12.1,0,0,0-2.693-3.09c-2.27-2.1-1.966-1.76.769-5.39,1.667-2.21,2.332-3.55,2.125-4.13-0.2-.55-1.423-0.41-1.423-0.41l-4.079.03a0.95,0.95,0,0,0-.526.09,1.122,1.122,0,0,0-.36.44,23.213,23.213,0,0,1-1.506,3.16c-1.816,3.07-2.542,3.23-2.839,3.04-0.69-.45-0.517-1.79-0.517-2.74,0-2.97.453-4.21-.883-4.53a6.766,6.766,0,0,0-1.9-.19,8.911,8.911,0,0,0-3.384.35c-0.464.22-.821,0.73-0.6,0.75a1.862,1.862,0,0,1,1.2.61,3.877,3.877,0,0,1,.4,1.83s0.241,3.5-.561,3.93c-0.55.3-1.3-.31-2.923-3.09a25.481,25.481,0,0,1-1.454-3,1.217,1.217,0,0,0-.336-0.45,1.7,1.7,0,0,0-.627-0.25l-3.874.02a1.348,1.348,0,0,0-.8.27,0.849,0.849,0,0,0-.014.69s3.032,7.06,6.467,10.61a9.3,9.3,0,0,0,6.726,3.05h0Zm0,0" transform="translate(-675 -8268.91)"/>
</svg>
